<svg width="149" height="46" viewBox="0 0 149 46" fill="none" xmlns="http://www.w3.org/2000/svg">
<path fill-rule="evenodd" clip-rule="evenodd" d="M10.606 21.2974C8.59521 21.2974 6.8488 20.882 5.3667 20.0513C3.89404 19.2111 2.75179 18.0264 1.93994 16.4971C1.13753 14.9583 0.736328 13.1411 0.736328 11.0454V10.3516C0.736328 8.35026 1.12337 6.58024 1.89746 5.0415C2.68099 3.49333 3.7902 2.28027 5.2251 1.40234C6.66943 0.524414 8.39225 0.0854492 10.3936 0.0854492C11.7812 0.0854492 13.0887 0.283691 14.3159 0.680176C15.5431 1.07666 16.6382 1.68083 17.6011 2.49268V7.47705H14.5283L14.1035 4.34766C13.6315 4.01725 13.0981 3.75765 12.5034 3.56885C11.9087 3.37061 11.2384 3.27148 10.4927 3.27148C8.74626 3.27148 7.37272 3.90869 6.37207 5.18311C5.37142 6.44808 4.87109 8.16146 4.87109 10.3232V11.0454C4.87109 13.2166 5.3903 14.9395 6.42871 16.2139C7.46712 17.4883 8.88314 18.1255 10.6768 18.1255C11.2715 18.1255 11.8662 18.0594 12.4609 17.9272C13.0651 17.7856 13.6126 17.6063 14.1035 17.3892L14.5283 14.4863H17.6011V19.4141C16.7987 19.9427 15.798 20.3911 14.5991 20.7593C13.4002 21.118 12.0692 21.2974 10.606 21.2974ZM28.9575 21.2974C27.0978 21.2974 25.4694 20.849 24.0723 19.9521C22.6751 19.0459 21.5848 17.8045 20.8013 16.228C20.0272 14.6515 19.6401 12.8579 19.6401 10.8472V10.5356C19.6401 8.53434 20.0272 6.74544 20.8013 5.16895C21.5848 3.59245 22.6704 2.35107 24.0581 1.44482C25.4552 0.538574 27.0837 0.0854492 28.9434 0.0854492C30.8031 0.0854492 32.4362 0.538574 33.8428 1.44482C35.2588 2.35107 36.3586 3.59245 37.1421 5.16895C37.9351 6.74544 38.3315 8.53434 38.3315 10.5356V10.8472C38.3315 12.8579 37.9398 14.6515 37.1562 16.228C36.3727 17.8045 35.2729 19.0459 33.8569 19.9521C32.4504 20.849 30.8172 21.2974 28.9575 21.2974ZM28.9575 18.083C30.7039 18.083 32.0161 17.4222 32.894 16.1006C33.772 14.7695 34.2109 13.0184 34.2109 10.8472V10.5073C34.2109 9.08187 34.0127 7.83105 33.6162 6.75488C33.2197 5.66927 32.6297 4.82438 31.8462 4.22021C31.0721 3.61605 30.1045 3.31396 28.9434 3.31396C27.2064 3.31396 25.9084 3.97477 25.0493 5.29639C24.1997 6.618 23.7749 8.35498 23.7749 10.5073V10.8472C23.7749 13.0184 24.2044 14.7695 25.0635 16.1006C25.932 17.4222 27.23 18.083 28.9575 18.083ZM39.9883 18.522V21H48.5269V18.522L46.0913 18.0972V13.7217L45.8506 4.9707L45.9355 4.95654L52.2368 20.7168H55.3662L61.5259 4.8291L61.6108 4.84326L61.54 14.1465V18.0972L59.2319 18.522V21H67.7705V18.522L65.5615 18.0972V3.2998L67.7705 2.875V0.382812H59.4443L54.0068 14.7554H53.9219L48.3003 0.382812H39.9883V2.875L42.1831 3.2998V18.0972L39.9883 18.522ZM69.2432 21V18.522L71.438 18.0972V3.2998L69.2432 2.875V0.382812H79.0562C80.6327 0.382812 81.992 0.661296 83.1343 1.21826C84.2765 1.76579 85.1545 2.53516 85.7681 3.52637C86.3817 4.50814 86.6885 5.65511 86.6885 6.96729C86.6885 8.27946 86.3817 9.43115 85.7681 10.4224C85.1545 11.4041 84.2765 12.1688 83.1343 12.7163C81.992 13.2544 80.6327 13.5234 79.0562 13.5234H75.5728V18.0972L77.7817 18.522V21H69.2432ZM75.5728 10.3374H79.0562C80.2078 10.3374 81.0763 10.0259 81.6616 9.40283C82.2563 8.77034 82.5537 7.96794 82.5537 6.99561C82.5537 6.00439 82.2563 5.18783 81.6616 4.5459C81.0763 3.89453 80.2078 3.56885 79.0562 3.56885H75.5728V10.3374ZM84.4653 18.522V21H91.4888V18.522L90.0586 18.2671L90.9648 15.4351H98.2148L99.1211 18.2671L97.6909 18.522V21H104.714V18.522L103.242 18.3096L96.728 0.382812H92.4941L85.938 18.3096L84.4653 18.522ZM97.2378 12.3906H91.9419L94.335 5.36719L94.5474 4.70166H94.6323L94.8306 5.32471L97.2378 12.3906ZM106.088 21V18.522L108.283 18.0972V3.2998L106.088 2.875V0.382812H112.474L121.452 14.6846L121.537 14.6704V3.2998L118.903 2.875V0.382812H127.441V2.875L125.232 3.2998V21H121.239L112.063 6.83984L111.979 6.854V18.0972L114.626 18.522V21H106.088ZM134.408 18.522V21H142.947V18.522L140.738 18.0972V13.6084L146.77 3.1582L148.809 2.875V0.382812H140.738V2.875L143.003 3.11572L139.194 9.72852L138.883 10.3516L138.798 10.3657L138.486 9.7002L135.06 3.11572L136.745 2.875V0.382812H128.518V2.875L130.5 3.1582L136.617 13.9341V18.0972L134.408 18.522ZM45.5195 46V44.3765L46.9575 44.0981V34.4033L45.5195 34.125V32.4922H49.7036L55.5854 41.8623L55.6411 41.853V34.4033L53.9155 34.125V32.4922H59.5098V34.125L58.0625 34.4033V46H55.4463L49.4346 36.7227L49.3789 36.7319V44.0981L51.1138 44.3765V46H45.5195ZM59.3706 46V44.3765L60.3354 44.2373L64.6309 32.4922H67.4048L71.6724 44.2373L72.6372 44.3765V46H68.0356V44.3765L68.9727 44.2095L68.3789 42.354H63.6289L63.0352 44.2095L63.9722 44.3765V46H59.3706ZM64.269 40.3594H67.7388L66.1616 35.73L66.0317 35.3218H65.9761L65.8369 35.7578L64.269 40.3594ZM73.5371 44.3765V46H79.1313V44.3765L77.5356 44.0981V41.2314L77.3779 35.498L77.4336 35.4888L81.562 45.8145H83.6123L87.6479 35.4053L87.7036 35.4146L87.6572 41.5098V44.0981L86.145 44.3765V46H91.7393V44.3765L90.292 44.0981V34.4033L91.7393 34.125V32.4922H86.2842L82.7217 41.9087H82.666L78.9829 32.4922H73.5371V34.125L74.9751 34.4033V44.0981L73.5371 44.3765ZM92.7041 46V44.3765L94.1421 44.0981V34.4033L92.7041 34.125V32.4922H103.188V36.1382H101.109L100.989 34.5796H96.8511V37.9751H101.425V40.0625H96.8511V43.9219H101.211L101.332 42.3076H103.392V46H92.7041ZM22 38H1V40H22V38ZM122 40H143V38H122V40Z" fill="#003A92"/>
</svg>
